<?xml version="1.0" encoding="utf-8"?>
<!-- Generator: Adobe Illustrator 21.1.0, SVG Export Plug-In . SVG Version: 6.00 Build 0)  -->
<svg version="1.1" id="Слой_1" xmlns="http://www.w3.org/2000/svg" xmlns:xlink="http://www.w3.org/1999/xlink" x="0px" y="0px"
	 viewBox="0 0 612 792" style="enable-background:new 0 0 612 792;" xml:space="preserve">
<image style="overflow:visible;enable-background:new    ;" width="623" height="394" xlink:href="953E82A6.jpg" >
</image>
<path style="fill:#FFFFFF;stroke:#000000;stroke-miterlimit:10;" d="M599.3,58.3c0,81.5,0,81.5,0,81.5H469v42h-80V62.3L543,62
	l0.3-3.8L599.3,58.3L599.3,58.3z"/>
<polygon style="fill:#FFFFFF;" points="167.5,58.2 167.5,174.5 181,174.5 181,177.8 185.5,179.3 185.5,181.8 200.5,181.8 
	227.8,181.8 227.8,161.3 217.3,161.5 216.5,155.5 218.8,155.8 219.3,158.3 237.5,158.5 237.5,172.3 274,172.3 274,85.5 244.8,85.8 
	235.3,86 235,77.5 279.8,78 279.8,44 274.3,44 274.3,56 274.5,58.2 "/>
<polygon style="fill:#FFFFFF;" points="161.3,84.3 22.5,84.3 22.5,208.8 85.8,208.8 85.8,176 78.3,176 78.5,152.5 88.3,152.5 
	88.3,137 161.3,136.8 "/>
<polygon style="fill:#FFFFFF;" points="110.3,300.3 110.3,220.5 165.8,220.5 165.8,233.8 176,233.3 176,213.8 274,213.8 274,246.3 
	240.8,246 240.8,257 274,257 274,318.8 167.5,318.8 167.5,300.8 "/>
<polygon style="fill:#FFFFFF;" points="374.3,213.1 276.8,213.1 276.8,319.4 376.5,319.4 "/>
<polygon style="fill:#FFFFFF;" points="482.3,211.5 482.3,317.8 429,317.8 429,298.8 422.8,299 422.8,321 378.8,321 378.8,211.5 "/>
</svg>
